<svg xmlns="http://www.w3.org/2000/svg" width="347" height="200" viewBox="0 0 347 200" version="1.1"><defs>
		</defs>
<rect width="347" style="fill:none;" height="200"/>
<path d="m273.2,56.4c-4.2,4.2-26.9,41-31.6,41-3.3,0-8.3-9.6-11.2-14.5-10.1-16.9-21-33.1-39.7-33.1-8.9,0-18.1,4.7-24,11.5-5.1-7.1-10.8-11.5-23.7-11.5-12,0-23.3,5.9-27.2,16.2-1.2-7.4-3.7-14.5-17.1-15.8-23.7-2.3-39.6,16.3-44.1,37.2-2.8,13.2,5.7,28.6,23.6,28.6,10.6,0,18.9-4.3,21.6-9.7,0,0-2.3,26.3-25.3,26.3-13.2,0-22.2-8.7-22.2-8.7l-2.2,9.1c-2.1,8.8,8.9,16.2,21.8,16.2,18.8,0,35.2-12,40.2-23.8,5-11.9,12.5-43.6,12.5-43.6,2.4-10.1,9.1-15.8,16.2-15.8,8.1,0,12.5,5.2,9.6,17.4l-6.8,28.5c-2.1,8.8,2.2,13.4,10.2,13.4h4.9l10.4-44c2.4-10.1,8.7-15.3,16.1-15.3,8.1,0,12.3,5.2,9.4,17.4l-6.8,28.5c-1.9,7.9,1.4,13.4,11.4,13.4h2.2s2.4-38.1,11.4-38.1c7.5,0,15.7,27,24.2,36.6,0,0,3.1,3,6.1,0,2.5-2.6,48.2-65.1,53.4-69.4-4.5-3.7-15.3-5.9-23.3,2zm-168.2,26.9c-2.8,11.8-11,18.6-20.2,18.6-8.8,0-13-7.1-10.7-16.7,2.6-11.1,11.6-19,21.1-19,8.1-0.1,12.6,5.6,9.8,17.1z" style="fill:#e30613;"/><path d="m304.5,51c2.6,0,4.8,2.2,4.8,4.8s-2.2,4.8-4.8,4.8-4.8-2.2-4.8-4.8,2.2-4.8,4.8-4.8zm0,8.8c2.2,0,4-1.8,4-4s-1.8-4-4-4-4,1.8-4,4c0.1,2.2,1.8,4,4,4zm-1.8-6.8h2.1c1.3,0,1.9,0.6,1.9,1.7,0,1-0.6,1.4-1.3,1.5l1.4,2.3h-1.1l-1.4-2.2h-0.7v2.2h-1v-5.5zm1,2.4h0.7c0.6,0,1.3,0,1.3-0.8,0-0.7-0.7-0.8-1.3-0.8h-0.7v1.6z" style="fill:#e30613;"/><path d="m120.7,140.1,1.6,0,0.1,9.1-1.6,0-0.1-9.1z"/><path d="m125.1,140.1,2.2,0,4.5,6.8,0,0,0,0,0,0-0.1-6.8,1.6,0,0.1,9.1-2.1,0-4.6-7l0.1,7h-1.6l-0.1-9.1z"/><path d="m136.1,140,2.2,0,4.5,6.8,0,0l-0.1-6.8h1.6l0.1,9.1h-2.1l-4.6-7,0.1,7h-1.6l-0.1-9.1z"/><path d="m151.5,139.6c2.9-0.1,4.9,1.8,4.9,4.7s-2,4.8-4.8,4.9c-2.8,0-4.9-1.9-4.9-4.7,0-2.9,2-4.9,4.8-4.9zm0.1,8.1c1.9,0,3.1-1.5,3.1-3.4,0-1.8-1.3-3.3-3.2-3.2-1.9,0-3.1,1.5-3.1,3.3,0,1.9,1.3,3.4,3.2,3.3z"/><path d="m157.2,139.8,1.9,0,2.6,6.9,2.5-6.9,1.8,0-3.6,9.2-1.4,0-3.8-9.2z"/><path d="m169.8,139.7,1.4,0,4,9.1-1.9,0-0.9-2.1-4,0-0.8,2.1-1.8,0,4-9.1zm2.1,5.6-1.4-3.7-1.4,3.7,2.8,0z"/><path d="m177.9,141-2.8,0,0-1.5,7.2-0.1,0,1.5-2.8,0,0.1,7.7-1.6,0-0.1-7.6z"/><path d="m184.2,139.5,1.6,0,0.1,9.1-1.6,0-0.1-9.1z"/><path d="m188.6,139.5,2.2,0,4.5,6.8,0,0l-0.1-6.8h1.6l0.1,9.1h-2.1l-4.6-7,0.1,7h-1.6l-0.1-9.1z"/><path d="m207.8,147.8c-1.1,0.6-2.4,0.9-3.8,0.9-2.8,0-4.9-1.9-4.9-4.7,0-2.9,2-4.9,4.8-4.9,1.4,0,2.7,0.3,3.6,1.1l-1.2,1.2c-0.6-0.6-1.5-0.9-2.4-0.9-1.9,0-3.1,1.5-3.1,3.3,0,2,1.3,3.4,3.2,3.4,0.8,0,1.6-0.2,2.1-0.5v-2.2h-1.9v-1.5h3.5l0.1,4.8z"/><path d="m219.3,141.1c-0.4-0.5-1-0.7-1.6-0.7-0.8,0-1.5,0.4-1.5,1.2,0,1.8,4.4,0.7,4.4,4,0,2-1.5,2.9-3.3,3-1.1,0-2.3-0.3-3-1.2l1.2-1.2c0.4,0.6,1.1,0.9,1.8,0.9,0.8,0,1.6-0.4,1.6-1.3,0-2-4.3-0.8-4.4-4.1,0-1.9,1.7-2.8,3.3-2.8,1,0,1.9,0.3,2.6,0.9l-1.1,1.3z"/><path d="m227.1,138.8c2.9-0.1,4.9,1.8,4.9,4.7s-2,4.8-4.8,4.9c-2.8,0-4.9-1.9-4.9-4.7,0-2.9,2-4.8,4.8-4.9zm0.1,8.2c1.9,0,3.1-1.5,3.1-3.4,0-1.8-1.3-3.3-3.2-3.2-1.9,0-3.1,1.5-3.1,3.3,0.1,1.9,1.3,3.3,3.2,3.3z"/><path d="m234.3,139,1.6,0,0.1,7.7,3.9,0,0,1.5-5.5,0.1-0.1-9.3z"/><path d="m248.9,144.7c0,2.2-1.6,3.6-3.6,3.6-2.1,0-3.7-1.3-3.7-3.6l-0.1-5.8h1.6l0.1,5.7c0,0.9,0.5,2.1,2.1,2.1s2-1.2,2-2.1l-0.1-5.7h1.6l0.1,5.8z"/><path d="m253.5,140.3-2.8,0,0-1.5,7.2-0.1,0,1.5-2.8,0,0.1,7.7-1.6,0-0.1-7.6z"/><path d="m259.7,138.8,1.6,0,0.1,9.1-1.6,0-0.1-9.1z"/><path d="m268.4,138.4c2.9-0.1,4.9,1.8,4.9,4.7s-2,4.8-4.8,4.9c-2.8,0-4.9-1.9-4.9-4.7,0-2.9,2-4.8,4.8-4.9zm0.1,8.2c1.9,0,3.1-1.5,3.1-3.4,0-1.8-1.3-3.3-3.2-3.2-1.9,0-3.1,1.5-3.1,3.3,0.1,1.9,1.4,3.3,3.2,3.3z"/><path d="m275.6,138.6,2.2,0,4.5,6.8,0,0l-0.1-6.8h1.6l0.1,9.1h-2.1l-4.6-7,0.1,7h-1.6l-0.1-9.1z"/><path d="m291.1,140.4c-0.4-0.5-1-0.7-1.6-0.7-0.8,0-1.5,0.4-1.5,1.2,0,1.8,4.4,0.7,4.4,4,0,2-1.5,2.9-3.3,3-1.1,0-2.3-0.3-3-1.2l1.2-1.2c0.4,0.6,1.1,0.9,1.8,0.9,0.8,0,1.6-0.4,1.6-1.3,0-2-4.3-0.8-4.4-4.1,0-1.9,1.7-2.8,3.3-2.8,1,0,1.9,0.3,2.6,0.9l-1.1,1.3z"/>
</svg>
